<mxfile host="Electron" modified="2023-09-14T03:18:45.416Z" agent="Mozilla/5.0 (Macintosh; Intel Mac OS X 10_15_7) AppleWebKit/537.36 (KHTML, like Gecko) draw.io/21.6.8 Chrome/114.0.5735.289 Electron/25.5.0 Safari/537.36" etag="RI72haZhe83DwqdDJ9HZ" version="21.6.8" type="device">
  <diagram name="第 1 页" id="V4F4deGFkEhNcrIPc2yX">
    <mxGraphModel dx="2208" dy="941" grid="1" gridSize="10" guides="1" tooltips="1" connect="1" arrows="1" fold="1" page="0" pageScale="1" pageWidth="827" pageHeight="1169" math="0" shadow="0">
      <root>
        <mxCell id="0" />
        <mxCell id="1" parent="0" />
        <mxCell id="14V2vMwINJfZVql4zoNw-40" value="" style="rounded=0;whiteSpace=wrap;html=1;movable=0;resizable=1;rotatable=1;deletable=1;editable=1;locked=0;connectable=1;" parent="1" vertex="1">
          <mxGeometry x="-1160" width="1050" height="60" as="geometry" />
        </mxCell>
        <mxCell id="14V2vMwINJfZVql4zoNw-1" value="" style="rounded=0;whiteSpace=wrap;html=1;" parent="1" vertex="1">
          <mxGeometry x="-510" y="200" width="1140" height="60" as="geometry" />
        </mxCell>
        <mxCell id="14V2vMwINJfZVql4zoNw-2" value="&lt;font style=&quot;font-size: 14px;&quot;&gt;checksum_len (4bytes)&lt;/font&gt;" style="rounded=0;whiteSpace=wrap;html=1;movable=0;" parent="1" vertex="1">
          <mxGeometry x="510" y="200" width="120" height="60" as="geometry" />
        </mxCell>
        <mxCell id="14V2vMwINJfZVql4zoNw-36" style="edgeStyle=orthogonalEdgeStyle;rounded=0;orthogonalLoop=1;jettySize=auto;html=1;exitX=0.5;exitY=0;exitDx=0;exitDy=0;entryX=0.5;entryY=0;entryDx=0;entryDy=0;movable=0;" parent="1" source="14V2vMwINJfZVql4zoNw-3" target="14V2vMwINJfZVql4zoNw-13" edge="1">
          <mxGeometry relative="1" as="geometry" />
        </mxCell>
        <mxCell id="14V2vMwINJfZVql4zoNw-37" value="checksum" style="edgeLabel;html=1;align=center;verticalAlign=middle;resizable=0;points=[];movable=0;" parent="14V2vMwINJfZVql4zoNw-36" vertex="1" connectable="0">
          <mxGeometry x="0.0929" y="1" relative="1" as="geometry">
            <mxPoint as="offset" />
          </mxGeometry>
        </mxCell>
        <mxCell id="14V2vMwINJfZVql4zoNw-3" value="&lt;font style=&quot;font-size: 14px;&quot;&gt;checksum&lt;br&gt;(checksum_len)&lt;/font&gt;" style="rounded=0;whiteSpace=wrap;html=1;movable=0;" parent="1" vertex="1">
          <mxGeometry x="390" y="200" width="120" height="60" as="geometry" />
        </mxCell>
        <mxCell id="14V2vMwINJfZVql4zoNw-5" value="table_index_len&lt;br style=&quot;font-size: 14px;&quot;&gt;(4 bytes)" style="rounded=0;whiteSpace=wrap;html=1;fontSize=14;movable=0;" parent="1" vertex="1">
          <mxGeometry x="270" y="200" width="120" height="60" as="geometry" />
        </mxCell>
        <mxCell id="14V2vMwINJfZVql4zoNw-10" style="edgeStyle=orthogonalEdgeStyle;rounded=0;orthogonalLoop=1;jettySize=auto;html=1;exitX=0.5;exitY=0;exitDx=0;exitDy=0;entryX=0.5;entryY=1;entryDx=0;entryDy=0;movable=0;" parent="1" source="14V2vMwINJfZVql4zoNw-6" target="14V2vMwINJfZVql4zoNw-3" edge="1">
          <mxGeometry relative="1" as="geometry" />
        </mxCell>
        <mxCell id="14V2vMwINJfZVql4zoNw-6" value="protobuf.Checksum" style="swimlane;fontStyle=0;childLayout=stackLayout;horizontal=1;startSize=26;fillColor=none;horizontalStack=0;resizeParent=1;resizeParentMax=0;resizeLast=0;collapsible=1;marginBottom=0;whiteSpace=wrap;html=1;movable=0;" parent="1" vertex="1">
          <mxGeometry x="375" y="380" width="150" height="78" as="geometry">
            <mxRectangle x="380" y="380" width="100" height="30" as="alternateBounds" />
          </mxGeometry>
        </mxCell>
        <mxCell id="14V2vMwINJfZVql4zoNw-7" value="algo: crc32 or xxhash64" style="text;strokeColor=none;fillColor=none;align=left;verticalAlign=top;spacingLeft=4;spacingRight=4;overflow=hidden;rotatable=0;points=[[0,0.5],[1,0.5]];portConstraint=eastwest;whiteSpace=wrap;html=1;movable=0;" parent="14V2vMwINJfZVql4zoNw-6" vertex="1">
          <mxGeometry y="26" width="150" height="26" as="geometry" />
        </mxCell>
        <mxCell id="14V2vMwINJfZVql4zoNw-8" value="sum: u64" style="text;strokeColor=none;fillColor=none;align=left;verticalAlign=top;spacingLeft=4;spacingRight=4;overflow=hidden;rotatable=0;points=[[0,0.5],[1,0.5]];portConstraint=eastwest;whiteSpace=wrap;html=1;movable=0;" parent="14V2vMwINJfZVql4zoNw-6" vertex="1">
          <mxGeometry y="52" width="150" height="26" as="geometry" />
        </mxCell>
        <mxCell id="14V2vMwINJfZVql4zoNw-13" value="table_index&lt;br&gt;(table_index_len)" style="rounded=0;whiteSpace=wrap;html=1;movable=0;" parent="1" vertex="1">
          <mxGeometry x="150" y="200" width="120" height="60" as="geometry" />
        </mxCell>
        <mxCell id="14V2vMwINJfZVql4zoNw-27" style="edgeStyle=orthogonalEdgeStyle;rounded=0;orthogonalLoop=1;jettySize=auto;html=1;exitX=0.5;exitY=0;exitDx=0;exitDy=0;entryX=0.5;entryY=1;entryDx=0;entryDy=0;movable=0;" parent="1" source="14V2vMwINJfZVql4zoNw-14" target="14V2vMwINJfZVql4zoNw-13" edge="1">
          <mxGeometry relative="1" as="geometry" />
        </mxCell>
        <mxCell id="14V2vMwINJfZVql4zoNw-14" value="flatbuffer.TableIndex" style="swimlane;fontStyle=0;childLayout=stackLayout;horizontal=1;startSize=26;fillColor=none;horizontalStack=0;resizeParent=1;resizeParentMax=0;resizeLast=0;collapsible=1;marginBottom=0;whiteSpace=wrap;html=1;movable=0;" parent="1" vertex="1">
          <mxGeometry x="120" y="350" width="180" height="208" as="geometry" />
        </mxCell>
        <mxCell id="14V2vMwINJfZVql4zoNw-15" value="offsets: Vec&amp;lt;Blockoffset&amp;gt;" style="text;strokeColor=none;fillColor=none;align=left;verticalAlign=top;spacingLeft=4;spacingRight=4;overflow=hidden;rotatable=0;points=[[0,0.5],[1,0.5]];portConstraint=eastwest;whiteSpace=wrap;html=1;movable=0;" parent="14V2vMwINJfZVql4zoNw-14" vertex="1">
          <mxGeometry y="26" width="180" height="26" as="geometry" />
        </mxCell>
        <mxCell id="14V2vMwINJfZVql4zoNw-16" value="bloom_filter: Vec&amp;lt;u8&amp;gt;" style="text;strokeColor=none;fillColor=none;align=left;verticalAlign=top;spacingLeft=4;spacingRight=4;overflow=hidden;rotatable=0;points=[[0,0.5],[1,0.5]];portConstraint=eastwest;whiteSpace=wrap;html=1;movable=0;" parent="14V2vMwINJfZVql4zoNw-14" vertex="1">
          <mxGeometry y="52" width="180" height="26" as="geometry" />
        </mxCell>
        <mxCell id="14V2vMwINJfZVql4zoNw-17" value="max_version: u64" style="text;strokeColor=none;fillColor=none;align=left;verticalAlign=top;spacingLeft=4;spacingRight=4;overflow=hidden;rotatable=0;points=[[0,0.5],[1,0.5]];portConstraint=eastwest;whiteSpace=wrap;html=1;movable=0;" parent="14V2vMwINJfZVql4zoNw-14" vertex="1">
          <mxGeometry y="78" width="180" height="26" as="geometry" />
        </mxCell>
        <mxCell id="14V2vMwINJfZVql4zoNw-18" value="key_count: u32" style="text;strokeColor=none;fillColor=none;align=left;verticalAlign=top;spacingLeft=4;spacingRight=4;overflow=hidden;rotatable=0;points=[[0,0.5],[1,0.5]];portConstraint=eastwest;whiteSpace=wrap;html=1;movable=0;" parent="14V2vMwINJfZVql4zoNw-14" vertex="1">
          <mxGeometry y="104" width="180" height="26" as="geometry" />
        </mxCell>
        <mxCell id="14V2vMwINJfZVql4zoNw-21" value="uncompressed_size: u32" style="text;strokeColor=none;fillColor=none;align=left;verticalAlign=top;spacingLeft=4;spacingRight=4;overflow=hidden;rotatable=0;points=[[0,0.5],[1,0.5]];portConstraint=eastwest;whiteSpace=wrap;html=1;movable=0;" parent="14V2vMwINJfZVql4zoNw-14" vertex="1">
          <mxGeometry y="130" width="180" height="26" as="geometry" />
        </mxCell>
        <mxCell id="14V2vMwINJfZVql4zoNw-20" value="on_disk_size: u32" style="text;strokeColor=none;fillColor=none;align=left;verticalAlign=top;spacingLeft=4;spacingRight=4;overflow=hidden;rotatable=0;points=[[0,0.5],[1,0.5]];portConstraint=eastwest;whiteSpace=wrap;html=1;movable=0;" parent="14V2vMwINJfZVql4zoNw-14" vertex="1">
          <mxGeometry y="156" width="180" height="26" as="geometry" />
        </mxCell>
        <mxCell id="14V2vMwINJfZVql4zoNw-19" value="stale_data_size: u32" style="text;strokeColor=none;fillColor=none;align=left;verticalAlign=top;spacingLeft=4;spacingRight=4;overflow=hidden;rotatable=0;points=[[0,0.5],[1,0.5]];portConstraint=eastwest;whiteSpace=wrap;html=1;movable=0;" parent="14V2vMwINJfZVql4zoNw-14" vertex="1">
          <mxGeometry y="182" width="180" height="26" as="geometry" />
        </mxCell>
        <mxCell id="14V2vMwINJfZVql4zoNw-22" value="flatbuffer.Blockoffset" style="swimlane;fontStyle=0;childLayout=stackLayout;horizontal=1;startSize=26;fillColor=none;horizontalStack=0;resizeParent=1;resizeParentMax=0;resizeLast=0;collapsible=1;marginBottom=0;whiteSpace=wrap;html=1;movable=0;" parent="1" vertex="1">
          <mxGeometry x="-100" y="412" width="140" height="104" as="geometry" />
        </mxCell>
        <mxCell id="14V2vMwINJfZVql4zoNw-23" value="key: Vec&amp;lt;u8&amp;gt;&lt;br&gt;" style="text;strokeColor=none;fillColor=none;align=left;verticalAlign=top;spacingLeft=4;spacingRight=4;overflow=hidden;rotatable=0;points=[[0,0.5],[1,0.5]];portConstraint=eastwest;whiteSpace=wrap;html=1;movable=0;" parent="14V2vMwINJfZVql4zoNw-22" vertex="1">
          <mxGeometry y="26" width="140" height="26" as="geometry" />
        </mxCell>
        <mxCell id="14V2vMwINJfZVql4zoNw-24" value="offset: u32" style="text;strokeColor=none;fillColor=none;align=left;verticalAlign=top;spacingLeft=4;spacingRight=4;overflow=hidden;rotatable=0;points=[[0,0.5],[1,0.5]];portConstraint=eastwest;whiteSpace=wrap;html=1;movable=0;" parent="14V2vMwINJfZVql4zoNw-22" vertex="1">
          <mxGeometry y="52" width="140" height="26" as="geometry" />
        </mxCell>
        <mxCell id="14V2vMwINJfZVql4zoNw-25" value="len: u32" style="text;strokeColor=none;fillColor=none;align=left;verticalAlign=top;spacingLeft=4;spacingRight=4;overflow=hidden;rotatable=0;points=[[0,0.5],[1,0.5]];portConstraint=eastwest;whiteSpace=wrap;html=1;movable=0;" parent="14V2vMwINJfZVql4zoNw-22" vertex="1">
          <mxGeometry y="78" width="140" height="26" as="geometry" />
        </mxCell>
        <mxCell id="14V2vMwINJfZVql4zoNw-33" style="edgeStyle=orthogonalEdgeStyle;rounded=0;orthogonalLoop=1;jettySize=auto;html=1;exitX=0;exitY=0.5;exitDx=0;exitDy=0;entryX=0.5;entryY=0;entryDx=0;entryDy=0;movable=0;" parent="1" source="14V2vMwINJfZVql4zoNw-15" target="14V2vMwINJfZVql4zoNw-22" edge="1">
          <mxGeometry relative="1" as="geometry" />
        </mxCell>
        <mxCell id="14V2vMwINJfZVql4zoNw-35" style="edgeStyle=orthogonalEdgeStyle;rounded=0;orthogonalLoop=1;jettySize=auto;html=1;exitX=0.5;exitY=1;exitDx=0;exitDy=0;entryX=0;entryY=0;entryDx=0;entryDy=0;movable=0;" parent="1" source="14V2vMwINJfZVql4zoNw-34" target="14V2vMwINJfZVql4zoNw-13" edge="1">
          <mxGeometry relative="1" as="geometry" />
        </mxCell>
        <mxCell id="14V2vMwINJfZVql4zoNw-34" value="index_start" style="text;html=1;strokeColor=none;fillColor=none;align=center;verticalAlign=middle;whiteSpace=wrap;rounded=0;movable=0;" parent="1" vertex="1">
          <mxGeometry x="120" y="140" width="60" height="30" as="geometry" />
        </mxCell>
        <mxCell id="14V2vMwINJfZVql4zoNw-39" value="Block" style="rounded=0;whiteSpace=wrap;html=1;movable=0;" parent="1" vertex="1">
          <mxGeometry x="-320" y="200" width="120" height="60" as="geometry" />
        </mxCell>
        <mxCell id="14V2vMwINJfZVql4zoNw-41" value="checksum_len&lt;br&gt;(4bytes)" style="rounded=0;whiteSpace=wrap;html=1;movable=0;" parent="1" vertex="1">
          <mxGeometry x="-230" width="120" height="60" as="geometry" />
        </mxCell>
        <mxCell id="14V2vMwINJfZVql4zoNw-52" style="edgeStyle=orthogonalEdgeStyle;rounded=0;orthogonalLoop=1;jettySize=auto;html=1;exitX=0.75;exitY=1;exitDx=0;exitDy=0;entryX=0.5;entryY=0;entryDx=0;entryDy=0;" parent="1" source="14V2vMwINJfZVql4zoNw-42" target="14V2vMwINJfZVql4zoNw-39" edge="1">
          <mxGeometry relative="1" as="geometry" />
        </mxCell>
        <mxCell id="14V2vMwINJfZVql4zoNw-68" style="edgeStyle=orthogonalEdgeStyle;rounded=0;orthogonalLoop=1;jettySize=auto;html=1;exitX=0.5;exitY=1;exitDx=0;exitDy=0;entryX=0.5;entryY=1;entryDx=0;entryDy=0;" parent="1" source="14V2vMwINJfZVql4zoNw-42" target="14V2vMwINJfZVql4zoNw-49" edge="1">
          <mxGeometry relative="1" as="geometry" />
        </mxCell>
        <mxCell id="14V2vMwINJfZVql4zoNw-69" value="checksum" style="edgeLabel;html=1;align=center;verticalAlign=middle;resizable=0;points=[];" parent="14V2vMwINJfZVql4zoNw-68" vertex="1" connectable="0">
          <mxGeometry x="0.172" relative="1" as="geometry">
            <mxPoint as="offset" />
          </mxGeometry>
        </mxCell>
        <mxCell id="14V2vMwINJfZVql4zoNw-42" value="checksum&lt;br&gt;(checksum_len)" style="rounded=0;whiteSpace=wrap;html=1;movable=0;" parent="1" vertex="1">
          <mxGeometry x="-350" width="120" height="60" as="geometry" />
        </mxCell>
        <mxCell id="14V2vMwINJfZVql4zoNw-43" value="" style="shape=curlyBracket;whiteSpace=wrap;html=1;rounded=1;labelPosition=left;verticalLabelPosition=middle;align=right;verticalAlign=middle;rotation=270;" parent="1" vertex="1">
          <mxGeometry x="-767.5" y="-282.5" width="20" height="810" as="geometry" />
        </mxCell>
        <mxCell id="14V2vMwINJfZVql4zoNw-44" value="num_of_entries&lt;br&gt;(4bytes)" style="rounded=0;whiteSpace=wrap;html=1;movable=0;" parent="1" vertex="1">
          <mxGeometry x="-450" width="100" height="60" as="geometry" />
        </mxCell>
        <mxCell id="14V2vMwINJfZVql4zoNw-45" value="entry_offsets&lt;br&gt;(Vec&amp;lt;u32&amp;gt;)&lt;br&gt;(num_of_entries * 4)" style="rounded=0;whiteSpace=wrap;html=1;movable=0;" parent="1" vertex="1">
          <mxGeometry x="-570" width="120" height="60" as="geometry" />
        </mxCell>
        <mxCell id="14V2vMwINJfZVql4zoNw-47" style="edgeStyle=orthogonalEdgeStyle;rounded=0;orthogonalLoop=1;jettySize=auto;html=1;exitX=0.5;exitY=1;exitDx=0;exitDy=0;entryX=0;entryY=0;entryDx=0;entryDy=0;" parent="1" source="14V2vMwINJfZVql4zoNw-46" target="14V2vMwINJfZVql4zoNw-45" edge="1">
          <mxGeometry relative="1" as="geometry" />
        </mxCell>
        <mxCell id="14V2vMwINJfZVql4zoNw-46" value="entries_index_start" style="text;html=1;strokeColor=none;fillColor=none;align=center;verticalAlign=middle;whiteSpace=wrap;rounded=0;movable=0;" parent="1" vertex="1">
          <mxGeometry x="-600" y="-50" width="60" height="30" as="geometry" />
        </mxCell>
        <mxCell id="14V2vMwINJfZVql4zoNw-49" value="data" style="text;html=1;strokeColor=none;fillColor=none;align=center;verticalAlign=middle;whiteSpace=wrap;rounded=0;" parent="1" vertex="1">
          <mxGeometry x="-787.5" y="130" width="60" height="30" as="geometry" />
        </mxCell>
        <mxCell id="14V2vMwINJfZVql4zoNw-51" value="actual_data" style="text;html=1;strokeColor=none;fillColor=none;align=center;verticalAlign=middle;whiteSpace=wrap;rounded=0;" parent="1" vertex="1">
          <mxGeometry x="-895" y="90" width="60" height="30" as="geometry" />
        </mxCell>
        <mxCell id="14V2vMwINJfZVql4zoNw-55" value="overlap&lt;br&gt;(2bytes)" style="rounded=0;whiteSpace=wrap;html=1;" parent="1" vertex="1">
          <mxGeometry x="-1160" width="60" height="60" as="geometry" />
        </mxCell>
        <mxCell id="14V2vMwINJfZVql4zoNw-56" value="diff&lt;br&gt;(2bytes)" style="rounded=0;whiteSpace=wrap;html=1;" parent="1" vertex="1">
          <mxGeometry x="-1100" width="60" height="60" as="geometry" />
        </mxCell>
        <mxCell id="14V2vMwINJfZVql4zoNw-57" value="base_key&lt;br&gt;(diff bytes)" style="rounded=0;whiteSpace=wrap;html=1;" parent="1" vertex="1">
          <mxGeometry x="-1040" width="120" height="60" as="geometry" />
        </mxCell>
        <mxCell id="14V2vMwINJfZVql4zoNw-58" value="" style="rounded=0;whiteSpace=wrap;html=1;" parent="1" vertex="1">
          <mxGeometry x="-990" y="-170" width="270" height="60" as="geometry" />
        </mxCell>
        <mxCell id="14V2vMwINJfZVql4zoNw-59" value="overlap&lt;br&gt;(2bytes)" style="rounded=0;whiteSpace=wrap;html=1;" parent="1" vertex="1">
          <mxGeometry x="-990" y="-170" width="60" height="60" as="geometry" />
        </mxCell>
        <mxCell id="14V2vMwINJfZVql4zoNw-60" value="diff&lt;br&gt;(2bytes)" style="rounded=0;whiteSpace=wrap;html=1;" parent="1" vertex="1">
          <mxGeometry x="-930" y="-170" width="60" height="60" as="geometry" />
        </mxCell>
        <mxCell id="14V2vMwINJfZVql4zoNw-73" style="edgeStyle=orthogonalEdgeStyle;rounded=0;orthogonalLoop=1;jettySize=auto;html=1;exitX=0.25;exitY=1;exitDx=0;exitDy=0;entryX=0.5;entryY=0;entryDx=0;entryDy=0;" parent="1" source="14V2vMwINJfZVql4zoNw-61" target="14V2vMwINJfZVql4zoNw-64" edge="1">
          <mxGeometry relative="1" as="geometry" />
        </mxCell>
        <mxCell id="14V2vMwINJfZVql4zoNw-61" value="diff_key&lt;br&gt;(diff bytes)" style="rounded=0;whiteSpace=wrap;html=1;" parent="1" vertex="1">
          <mxGeometry x="-870" y="-170" width="80" height="60" as="geometry" />
        </mxCell>
        <mxCell id="14V2vMwINJfZVql4zoNw-63" value="value" style="text;html=1;strokeColor=none;fillColor=none;align=center;verticalAlign=middle;whiteSpace=wrap;rounded=0;" parent="1" vertex="1">
          <mxGeometry x="-790" y="-155" width="60" height="30" as="geometry" />
        </mxCell>
        <mxCell id="14V2vMwINJfZVql4zoNw-64" value="entry" style="rounded=0;whiteSpace=wrap;html=1;" parent="1" vertex="1">
          <mxGeometry x="-920" width="140" height="60" as="geometry" />
        </mxCell>
        <mxCell id="14V2vMwINJfZVql4zoNw-65" value="" style="shape=curlyBracket;whiteSpace=wrap;html=1;rounded=1;labelPosition=left;verticalLabelPosition=middle;align=right;verticalAlign=middle;rotation=270;" parent="1" vertex="1">
          <mxGeometry x="-875" y="-215" width="20" height="587.5" as="geometry" />
        </mxCell>
        <mxCell id="14V2vMwINJfZVql4zoNw-66" value="entry" style="rounded=0;whiteSpace=wrap;html=1;" parent="1" vertex="1">
          <mxGeometry x="-690" width="120" height="60" as="geometry" />
        </mxCell>
        <mxCell id="14V2vMwINJfZVql4zoNw-67" value="......." style="text;html=1;strokeColor=none;fillColor=none;align=center;verticalAlign=middle;whiteSpace=wrap;rounded=0;" parent="1" vertex="1">
          <mxGeometry x="-767.5" y="15" width="60" height="30" as="geometry" />
        </mxCell>
        <mxCell id="14V2vMwINJfZVql4zoNw-74" value="Block" style="rounded=0;whiteSpace=wrap;html=1;movable=1;" parent="1" vertex="1">
          <mxGeometry x="-40" y="200" width="120" height="60" as="geometry" />
        </mxCell>
        <mxCell id="14V2vMwINJfZVql4zoNw-75" value="......." style="text;html=1;strokeColor=none;fillColor=none;align=center;verticalAlign=middle;whiteSpace=wrap;rounded=0;" parent="1" vertex="1">
          <mxGeometry x="-150" y="215" width="60" height="30" as="geometry" />
        </mxCell>
      </root>
    </mxGraphModel>
  </diagram>
</mxfile>
